<?xml version="1.0" standalone="no"?>
<!DOCTYPE svg PUBLIC "-//W3C//DTD SVG 20010904//EN"
 "http://www.w3.org/TR/2001/REC-SVG-20010904/DTD/svg10.dtd">
<svg version="1.0" xmlns="http://www.w3.org/2000/svg"
 width="300.000000pt" height="90.000000pt" viewBox="0 0 300.000000 90.000000"
 preserveAspectRatio="xMidYMid meet">
<metadata>
Created by potrace 1.10, written by Peter Selinger 2001-2011
</metadata>
<g transform="translate(0.000000,90.000000) scale(0.100000,-0.100000)"
fill="#000000" stroke="none">
<path d="M1167 844 c-4 -4 -7 -182 -7 -394 0 -331 2 -389 15 -400 8 -7 22 -10
30 -6 13 5 15 54 13 403 -3 392 -3 398 -23 401 -12 2 -24 0 -28 -4z"/>
<path d="M1380 451 l0 -336 142 2 c165 3 216 16 280 72 139 123 152 353 29
494 -52 59 -124 90 -216 94 -44 2 -115 5 -157 6 l-78 4 0 -336z m301 247 c52
-23 101 -70 129 -125 35 -71 34 -179 -4 -257 -47 -97 -125 -136 -268 -136
l-78 0 0 271 0 272 93 -5 c50 -3 108 -12 128 -20z"/>
<path d="M364 735 c-27 -41 0 -83 48 -76 3 0 9 -13 13 -29 9 -39 58 -80 97
-80 95 0 145 115 79 181 -24 23 -38 29 -73 29 -24 0 -49 -5 -56 -12 -9 -9 -15
-9 -24 0 -21 21 -66 14 -84 -13z m207 -36 c27 -27 21 -66 -12 -92 -37 -26 -59
-17 -107 48 l-41 54 47 4 c26 2 57 4 70 5 12 1 31 -7 43 -19z"/>
<path d="M2128 600 c-46 -25 -92 -80 -107 -129 -29 -97 -5 -228 52 -289 56
-61 183 -88 277 -60 42 13 45 16 48 51 l3 38 -32 -16 c-47 -25 -177 -18 -216
11 -31 23 -58 65 -68 104 l-6 26 175 -3 176 -3 0 58 c0 31 -5 74 -11 95 -13
47 -63 106 -106 123 -47 20 -141 17 -185 -6z m157 -54 c37 -16 59 -51 70 -109
l7 -37 -141 0 -141 0 6 28 c26 106 109 155 199 118z"/>
<path d="M2519 578 c9 -24 50 -138 90 -254 l73 -211 46 2 47 1 85 240 c47 131
89 245 93 252 6 9 -3 12 -35 12 l-43 -1 -69 -212 c-38 -117 -71 -219 -73 -227
-4 -13 -64 163 -130 382 l-18 58 -42 0 -42 0 18 -42z"/>
<path d="M315 571 c-36 -15 -123 -86 -155 -126 -45 -56 -88 -145 -106 -218 -8
-34 -18 -70 -20 -79 -5 -16 4 -18 100 -18 l106 0 0 43 c0 24 6 65 14 91 15 48
60 126 74 126 4 0 25 -28 47 -62 65 -102 57 -98 201 -98 136 0 164 8 164 45 0
36 -28 45 -137 45 l-99 0 -38 108 c-49 139 -83 170 -151 143z m75 -60 c5 -11
24 -57 41 -103 17 -46 40 -93 51 -105 12 -13 19 -26 15 -29 -14 -14 -48 10
-76 55 -49 75 -76 97 -109 85 -35 -12 -87 -99 -103 -173 -7 -31 -18 -59 -23
-63 -6 -4 -30 -8 -53 -8 -39 0 -43 2 -43 25 0 60 76 210 132 262 75 69 147 92
168 54z"/>
<path d="M931 408 c-4 -13 -23 -64 -41 -115 l-32 -92 -91 -3 c-71 -2 -92 -7
-100 -20 -8 -12 -7 -21 2 -32 11 -13 35 -16 122 -16 102 0 109 1 122 23 25 39
90 244 84 261 -10 25 -56 20 -66 -6z"/>
</g>
</svg>
