<svg xmlns="http://www.w3.org/2000/svg" version="1.1" xmlns:xlink="http://www.w3.org/1999/xlink" xmlns:svgjs="http://svgjs.com/svgjs" width="1024.000000pt" height="1024.000000pt"><svg version="1.0" xmlns="http://www.w3.org/2000/svg" width="1024.000000pt" height="1024.000000pt" viewBox="0 0 1024.000000 1024.000000" preserveAspectRatio="xMidYMid meet">

<g transform="translate(0.000000,1024.000000) scale(0.100000,-0.100000)" fill="#000000" stroke="none">
<path d="M4845 9174 c-379 -39 -626 -90 -953 -200 -631 -212 -1217 -579 -1665
-1044 -675 -700 -1072 -1565 -1157 -2520 -13 -147 -13 -480 0 -635 66 -785
323 -1484 757 -2058 133 -176 221 -277 392 -448 184 -184 300 -283 501 -429
567 -411 1210 -665 1925 -761 227 -31 731 -34 947 -7 979 125 1818 544 2503
1250 560 576 910 1271 1044 2077 43 259 55 415 55 706 -1 379 -34 639 -123
987 -271 1054 -986 1993 -1931 2535 -500 287 -985 454 -1542 529 -108 15 -656
28 -753 18z m605 -455 c433 -39 861 -163 1271 -369 1024 -512 1787 -1517 1990
-2619 60 -329 69 -765 23 -1131 -76 -609 -334 -1223 -711 -1696 -78 -98 -279
-314 -292 -314 -3 0 -6 141 -6 313 0 333 -6 399 -51 547 -51 166 -176 376
-285 476 -100 91 -264 182 -394 217 -33 9 -123 35 -200 56 -143 41 -624 172
-772 211 l-83 22 0 150 0 151 75 79 c83 87 173 216 228 329 35 72 87 218 87
244 0 7 39 32 88 56 112 54 192 132 243 239 50 102 63 172 63 325 0 175 -25
254 -119 367 l-46 57 30 88 c48 142 64 263 64 473 0 148 -4 205 -21 286 -39
192 -103 317 -226 440 -65 65 -98 89 -166 122 -88 42 -169 62 -253 62 -46 0
-52 3 -88 43 -105 120 -265 204 -466 244 -123 24 -437 24 -583 0 -485 -82
-871 -271 -1050 -512 -91 -124 -155 -278 -181 -440 -7 -44 -12 -152 -12 -240
1 -184 24 -335 72 -483 l31 -94 -47 -51 c-93 -104 -131 -242 -118 -435 3 -57
13 -126 22 -155 51 -171 173 -300 346 -366 19 -8 28 -23 41 -77 45 -178 155
-366 315 -540 l62 -67 -3 -146 -3 -145 -60 -17 c-33 -10 -152 -43 -265 -74
-663 -183 -797 -223 -888 -266 -109 -50 -192 -110 -274 -197 -146 -155 -233
-325 -280 -549 -21 -100 -23 -131 -22 -426 1 -174 -2 -317 -6 -317 -4 0 -52
46 -106 102 -458 473 -774 1119 -885 1806 -37 233 -51 684 -28 932 30 340 129
728 266 1049 169 396 436 795 749 1120 301 313 636 562 1001 745 618 310 1263
435 1923 375z m-13 -739 c48 -14 48 -25 0 -36 -44 -9 -217 -85 -430 -188 -189
-92 -387 -164 -527 -191 -47 -9 -159 -20 -250 -24 l-165 -6 -89 -53 c-48 -29
-90 -51 -93 -48 -3 3 12 32 32 66 43 70 137 164 222 222 185 126 495 233 776
268 100 12 472 5 524 -10z m711 -315 c65 -30 163 -122 202 -190 47 -82 79
-178 95 -285 19 -126 19 -126 -9 -59 -43 105 -151 216 -227 234 l-26 6 0 -104
c0 -104 -13 -180 -41 -247 -14 -33 -15 -34 -29 -15 -44 58 -89 203 -99 325 -6
66 5 216 23 333 5 35 8 38 32 32 14 -3 50 -17 79 -30z m-965 -287 c-39 -73
-154 -187 -234 -232 -119 -65 -199 -87 -339 -93 -109 -5 -136 -3 -210 18 l-85
23 123 17 c68 10 165 30 215 44 164 47 381 153 502 245 28 21 52 36 53 34 2
-1 -9 -27 -25 -56z m673 -298 c70 -197 173 -328 343 -440 22 -15 22 -18 12
-75 -6 -32 -11 -76 -11 -98 0 -35 -2 -38 -22 -31 -63 20 -112 24 -328 23 -260
0 -353 -8 -423 -38 -62 -27 -131 -92 -174 -165 -19 -34 -40 -64 -47 -68 -6 -4
-38 -8 -72 -8 -69 0 -77 6 -114 85 -30 61 -91 124 -150 153 -76 36 -172 45
-444 39 -227 -4 -270 -8 -328 -32 -16 -6 -18 -1 -18 36 0 75 -18 115 -78 181
-31 34 -48 58 -37 54 58 -24 187 -57 282 -72 85 -13 152 -15 323 -12 189 4
230 8 335 32 254 59 459 158 650 315 81 66 192 190 233 261 l27 45 7 -55 c4
-30 19 -89 34 -130z m-1083 -834 c42 -17 85 -68 92 -109 10 -52 -23 -224 -56
-293 -32 -69 -73 -106 -153 -137 -70 -28 -266 -31 -342 -4 -152 53 -195 121
-224 350 -14 112 -6 136 63 181 l41 26 273 0 c209 0 281 -3 306 -14z m1363
-14 c60 -45 67 -71 54 -183 -26 -226 -64 -289 -206 -341 -47 -17 -83 -21 -179
-22 -144 -1 -210 16 -273 70 -66 56 -99 136 -121 297 -11 78 -4 107 37 151 51
54 62 56 372 53 280 -2 286 -2 316 -25z m-2275 -110 c31 -28 31 -29 44 -177
23 -263 26 -325 15 -325 -23 0 -116 90 -144 140 -30 54 -31 59 -34 203 -3 130
-2 151 14 168 25 28 68 24 105 -9z m2650 7 c20 -20 21 -29 17 -163 -5 -154
-21 -212 -76 -269 -28 -30 -91 -72 -97 -66 -2 2 1 45 6 94 4 50 13 153 18 230
l10 140 33 28 c39 33 61 34 89 6z m-1291 -171 c5 -13 20 -61 34 -108 50 -169
138 -267 293 -327 59 -22 88 -27 213 -31 127 -4 157 -2 235 18 50 12 107 30
128 40 l37 18 0 -25 c0 -42 -41 -193 -72 -267 -103 -241 -344 -494 -583 -610
-256 -125 -533 -115 -785 29 -332 189 -569 514 -607 834 l-6 49 59 -28 c94
-44 176 -60 311 -60 193 0 308 38 414 137 57 53 99 130 134 248 15 50 29 93
32 98 2 4 38 7 79 7 68 0 75 -2 84 -22z m-649 -1404 c346 -218 739 -231 1080
-35 l84 48 3 -194 c3 -227 7 -215 -110 -305 -147 -111 -279 -152 -493 -151
-252 1 -434 69 -567 211 l-48 51 0 201 c0 110 2 200 5 200 3 0 24 -11 46 -26z
m2267 -827 c107 -31 198 -110 244 -213 33 -73 33 -176 4 -776 -14 -290 -26
-557 -26 -593 l0 -65 -87 -69 -88 -70 -3 42 c-2 23 4 179 12 347 54 1030 55
1064 27 1118 -25 48 -66 87 -114 107 -33 14 -209 15 -1678 16 l-1641 0 -41
-21 c-23 -12 -50 -29 -61 -38 -23 -21 -51 -77 -60 -118 -8 -37 5 -339 58
-1356 3 -56 1 -88 -5 -88 -9 0 -59 37 -151 110 -17 15 -20 47 -38 420 -39 824
-41 888 -30 952 23 123 95 220 206 274 l59 29 370 5 c204 3 960 4 1680 4 1145
-2 1317 -4 1363 -17z m-2227 -713 c63 -29 116 -78 147 -138 27 -51 27 -53 27
-256 l0 -205 -27 -47 c-35 -59 -89 -103 -157 -129 -43 -16 -81 -20 -200 -22
l-146 -2 -3 400 c-1 220 0 406 3 414 4 10 36 12 158 9 127 -3 160 -7 198 -24z
m767 -51 l-3 -78 -147 -3 -148 -3 0 -89 0 -90 130 0 131 0 -3 -72 -3 -73 -127
-3 -128 -3 0 -89 0 -90 145 0 145 0 0 -80 0 -80 -225 0 -225 0 0 415 0 415
230 0 231 0 -3 -77z m291 -85 c102 -395 104 -402 112 -382 4 10 34 136 66 279
l59 260 87 3 c48 1 87 1 87 -1 0 -11 -126 -489 -160 -607 -21 -74 -43 -154
-50 -177 l-11 -43 -80 0 c-73 0 -80 2 -89 23 -22 52 -230 775 -230 801 0 3 38
6 84 6 l83 0 42 -162z"></path>
<path d="M4420 2626 l0 -256 45 0 c61 0 107 21 136 61 22 31 24 45 27 170 4
155 -5 203 -48 244 -26 25 -40 30 -95 33 l-65 4 0 -256z"></path>
</g>
</svg><style>@media (prefers-color-scheme: light) { :root { filter: none; } }
</style></svg>