<svg xmlns="http://www.w3.org/2000/svg" version="1.1" xmlns:xlink="http://www.w3.org/1999/xlink" xmlns:svgjs="http://svgjs.dev/svgjs" width="160" height="200" viewBox="0 0 160 200"><rect width="160" height="200" fill="#f8f8f8"></rect><g transform="matrix(0.6666666666666666,0,0,0.6666666666666666,249.39393939393938,613.0687285626054)"><svg viewBox="0 0 396 109" data-background-color="#f8f8f8" preserveAspectRatio="xMidYMid meet" height="412" width="1500" xmlns="http://www.w3.org/2000/svg" xmlns:xlink="http://www.w3.org/1999/xlink"><g id="tight-bounds" transform="matrix(1,0,0,1,0.2400000000000091,-0.15955611647078172)"><svg viewBox="0 0 395.52 109.31911223294158" height="109.31911223294158" width="395.52"><g><svg viewBox="0 0 735.1714605009448 203.19652963430008" height="109.31911223294158" width="395.52"><g><rect width="15.270393951033137" height="203.19652963430008" x="284.40621327495586" y="0" fill="#61777f" opacity="1" stroke-width="0" stroke="transparent" fill-opacity="1" class="rect-qz-0" data-fill-palette-color="primary" rx="1%" id="qz-0" data-palette-color="#61777f"></rect></g><g transform="matrix(1,0,0,1,339.6514605009449,16.93304413619167)"><svg viewBox="0 0 395.52 169.33044136191674" height="169.33044136191674" width="395.52"><g id="textblocktransform"><svg viewBox="0 0 395.52 169.33044136191674" height="169.33044136191674" width="395.52" id="textblock"><g><svg viewBox="0 0 395.52 169.33044136191674" height="169.33044136191674" width="395.52"><g transform="matrix(1,0,0,1,0,0)"><svg width="395.52" viewBox="3.85 -33.7 79.30000000000001 33.95" height="169.33044136191674" data-palette-color="#61777f"><path d="M14.05 0L14.05 0 3.85 0 3.85-33.7 13.85-33.7Q21.3-33.7 26.08-29.08 30.85-24.45 30.85-17.1L30.85-17.1Q30.85-9.8 26.43-4.9 22 0 14.05 0ZM13.8-30.1L13.8-30.1 7.95-30.1 7.95-3.55 14-3.55Q20.25-3.55 23.45-7.43 26.65-11.3 26.65-17.1L26.65-17.1Q26.65-22.6 23.08-26.35 19.5-30.1 13.8-30.1ZM55.2-5L55.2-1.3Q52.25 0.25 48 0.25L48 0.25Q42.25 0.25 38.72-3.28 35.2-6.8 35.2-12.6L35.2-12.6Q35.2-18.65 38.35-22.15 41.5-25.65 46.45-25.65L46.45-25.65Q51.2-25.65 54-22.6 56.8-19.55 56.8-13.95L56.8-13.95Q56.8-12.35 56.55-11L56.55-11 39.25-11Q39.7-7.25 42.1-5.25 44.5-3.25 48.4-3.25L48.4-3.25Q52.65-3.25 55.2-5L55.2-5ZM46.45-22.2L46.45-22.2Q43.6-22.2 41.6-20.15 39.6-18.1 39.25-14.3L39.25-14.3 52.85-14.3 52.85-15.3Q52.85-18.45 51.15-20.33 49.45-22.2 46.45-22.2ZM83.15-25.35L74.1 0 69.25 0 60.4-25.35 64.5-25.35 68-14.65 71.7-3.1Q72.15-5.25 75.45-14.65L75.45-14.65 79.05-25.35 83.15-25.35Z" opacity="1" transform="matrix(1,0,0,1,0,0)" fill="#61777f" class="wordmark-text-0" data-fill-palette-color="primary" id="text-0"></path></svg></g></svg></g></svg></g></svg></g><g transform="matrix(1,0,0,1,0,22.098194777808345)"><svg viewBox="0 0 244.43135999999998 159.0001400786834" height="159.0001400786834" width="244.43135999999998"><g><svg xmlns="http://www.w3.org/2000/svg" xmlns:xlink="http://www.w3.org/1999/xlink" version="1.1" x="0" y="0" viewBox="5.9 129.5 89.62475304077105 58.30000000000001" enable-background="new 0 107.3 100 100" xml:space="preserve" height="159.0001400786834" width="244.43135999999998" class="icon-icon-0" data-fill-palette-color="accent" id="icon-0"><path d="M71.8 174.8c0-3-2.3-4.4-5.2-4.4H49.9L43.2 152l0 0c-1-3.2-4-5.6-7.6-5.6-1.3 0-2.5 0.3-3.6 0.9l0 0C17.5 154.5 9.1 168 5.9 187.7l19 0c0.5-8.3 2-18 8.8-23.8l7.8 11.7 0 0c0.9 1.7 2.7 3 4.7 3h20.3C69.6 178.5 71.8 177.7 71.8 174.8z" fill="#c8c8c8" data-fill-palette-color="accent"></path><path d="M84.7 187.8H67.5c-1.9 0-3.5-1.6-3.5-3.5s1.6-3.5 3.5-3.5h14.7l6.5-18.5c0.6-1.8 2.6-2.8 4.5-2.1 1.8 0.6 2.8 2.6 2.1 4.5L88 185.5C87.5 186.9 86.2 187.8 84.7 187.8z" fill="#c8c8c8" data-fill-palette-color="accent"></path><path fill="#c8c8c8" d="M51.7 129.5c-2.5 0-4.8 0.9-6.5 2.4-0.9-1.5-2.5-2.4-4.4-2.4-2.9 0-5.2 2.3-5.2 5.2s2.3 5.2 5.2 5.2c0.3 0 0.6 0 0.9-0.1 0.2 5.4 4.6 9.6 10 9.6 5.5 0 10-4.5 10-10S57.2 129.5 51.7 129.5z" data-fill-palette-color="accent"></path></svg></g></svg></g></svg></g><defs></defs></svg><rect width="395.52" height="109.31911223294158" fill="none" stroke="none" visibility="hidden"></rect></g></svg></g></svg>