<?xml version="1.0" standalone="no"?>
<!DOCTYPE svg PUBLIC "-//W3C//DTD SVG 20010904//EN"
 "http://www.w3.org/TR/2001/REC-SVG-20010904/DTD/svg10.dtd">
<svg version="1.0" xmlns="http://www.w3.org/2000/svg"
 width="700.000000pt" height="700.000000pt" viewBox="0 0 700.000000 700.000000"
 preserveAspectRatio="xMidYMid meet">
<metadata>
Created by potrace 1.14, written by Peter Selinger 2001-2017
</metadata>
<g transform="translate(0.000000,700.000000) scale(0.100000,-0.100000)"
fill="#000000" stroke="none">
<path d="M3242 6263 c-173 -22 -214 -29 -342 -60 -1056 -255 -1877 -1087
-2110 -2136 -27 -123 -32 -151 -46 -253 -24 -182 -25 -462 0 -669 6 -50 16
-118 21 -145 3 -14 8 -41 11 -60 4 -19 8 -42 9 -50 17 -91 75 -281 140 -460
32 -88 148 -311 217 -417 130 -199 204 -289 398 -481 301 -299 667 -525 1071
-662 68 -23 131 -43 139 -45 8 -2 35 -8 60 -15 52 -14 46 -13 170 -38 52 -11
118 -23 145 -27 28 -4 61 -9 75 -11 52 -10 548 -12 610 -3 390 56 666 140 969
295 275 142 484 296 721 533 306 307 501 615 633 1001 34 101 70 225 82 283 3
15 7 37 10 50 3 12 7 33 10 47 56 261 66 718 20 970 -3 14 -8 43 -11 65 -3 22
-8 43 -10 46 -2 3 -6 21 -9 40 -10 55 -55 223 -65 241 -6 10 -10 23 -10 30 0
24 -84 234 -137 342 -108 218 -230 407 -381 590 -82 98 -245 264 -331 336 -30
25 -59 50 -65 55 -25 25 -227 165 -296 207 -332 201 -705 338 -1050 388 -157
23 -513 30 -648 13z m538 -307 c19 -4 67 -11 105 -17 108 -17 269 -57 383 -96
491 -167 914 -475 1228 -895 262 -351 408 -705 479 -1163 18 -116 12 -553 -9
-675 -2 -14 -7 -43 -11 -65 -56 -338 -218 -720 -424 -996 -76 -102 -226 -269
-241 -269 -5 0 -9 87 -10 192 -2 246 -5 288 -31 373 -51 167 -146 308 -262
387 -108 73 -129 81 -572 202 -132 36 -260 71 -285 77 -25 7 -49 13 -55 13 -6
1 -11 45 -13 104 l-3 104 61 69 c64 71 156 215 167 259 3 14 9 30 13 35 3 6
12 29 19 53 10 36 19 46 62 68 107 54 186 158 207 272 5 29 8 92 6 142 -3 99
-26 165 -81 229 l-30 35 23 71 c13 40 27 103 32 141 15 108 8 328 -12 404 -58
216 -211 365 -397 386 -59 6 -69 11 -123 60 -124 110 -241 147 -471 148 -186
1 -231 -4 -382 -44 -366 -96 -583 -267 -657 -520 -42 -140 -40 -365 4 -532 11
-41 23 -85 28 -98 7 -19 4 -29 -15 -50 -68 -72 -94 -159 -88 -295 8 -171 67
-269 207 -345 54 -29 57 -33 78 -97 39 -121 111 -239 211 -348 l39 -43 -2 -97
c-1 -88 -3 -98 -22 -106 -12 -5 -136 -41 -276 -80 -532 -147 -590 -170 -701
-279 -103 -101 -164 -208 -201 -354 -17 -65 -21 -119 -24 -271 -1 -104 -3
-210 -4 -235 l-1 -45 -72 77 c-319 338 -524 754 -601 1218 -34 203 -40 588
-11 750 2 14 9 57 15 95 20 129 61 272 134 471 29 79 115 250 179 355 418 689
1100 1134 1877 1224 30 4 56 8 58 10 6 6 436 -3 472 -9z m-75 -500 c11 -2 24
-5 30 -5 17 -2 -9 -17 -60 -36 -27 -10 -120 -51 -205 -90 -293 -136 -377 -160
-596 -170 -83 -4 -98 -7 -159 -41 l-68 -38 19 33 c104 178 353 302 714 355 25
4 303 -3 325 -8z m498 -217 c60 -31 126 -104 158 -174 32 -72 67 -233 43 -201
-8 11 -14 25 -14 32 0 21 -99 122 -130 133 -22 7 -30 7 -31 -2 0 -7 -2 -41 -3
-77 -3 -65 -18 -132 -35 -159 -12 -19 -34 24 -61 120 -16 59 -19 93 -15 179 2
58 6 114 9 125 2 11 5 26 5 33 1 18 26 15 74 -9z m-665 -200 c-47 -83 -185
-185 -279 -205 -64 -13 -176 -15 -237 -3 -73 13 -66 23 24 33 127 14 336 96
451 176 31 22 58 40 60 40 2 0 -6 -18 -19 -41z m454 -159 c16 -62 45 -126 81
-180 36 -54 131 -147 159 -156 17 -5 19 -12 13 -67 -4 -34 -10 -65 -14 -69 -3
-4 -29 -4 -57 0 -84 14 -377 5 -437 -12 -56 -16 -100 -52 -149 -123 -16 -24
-34 -44 -41 -44 -14 -2 -70 -2 -78 0 -3 1 -22 27 -42 59 -72 110 -117 126
-362 124 -171 0 -211 -3 -254 -17 -16 -5 -19 2 -25 42 -4 33 -17 61 -41 92
-19 24 -35 45 -35 46 0 1 37 -9 83 -23 76 -24 98 -26 287 -26 253 -1 353 20
530 109 129 65 271 186 336 284 23 35 30 40 32 25 1 -10 8 -39 14 -64z m-724
-613 c36 -16 61 -66 57 -112 -10 -95 -41 -186 -74 -213 -42 -34 -102 -53 -178
-54 -164 -3 -246 55 -267 187 -21 127 -20 133 18 171 l35 35 193 -2 c106 -1
203 -7 216 -12z m937 -18 c29 -29 32 -48 22 -142 -16 -142 -76 -205 -206 -216
-159 -14 -244 19 -287 112 -23 51 -39 136 -35 189 2 25 49 76 74 80 12 2 109
3 215 3 192 -1 193 -1 217 -26z m-1559 -70 c7 -6 15 -40 19 -77 3 -37 8 -86
11 -109 7 -62 7 -143 1 -149 -9 -10 -88 77 -103 113 -18 43 -22 217 -5 237 13
15 49 8 77 -15z m1805 5 c9 -11 13 -40 12 -87 -4 -132 -18 -175 -73 -221 -37
-30 -50 -33 -45 -8 3 16 15 179 19 259 3 58 57 93 87 57z m-866 -164 c44 -129
86 -184 176 -230 51 -27 102 -34 219 -33 67 0 114 7 160 21 35 12 66 19 69 16
7 -7 -28 -139 -50 -191 -44 -103 -160 -247 -264 -329 -225 -177 -482 -189
-720 -32 -139 91 -267 243 -321 380 -26 67 -51 174 -43 183 3 3 23 -4 45 -14
55 -27 128 -38 225 -35 96 3 112 6 172 32 70 31 117 80 154 159 18 39 33 76
33 82 0 5 4 21 9 34 9 22 15 25 62 23 l52 -1 22 -65z m-272 -994 c160 -53 358
-34 521 49 l86 44 1 -47 c5 -234 4 -238 -90 -301 -103 -70 -179 -92 -321 -92
-161 0 -269 37 -368 126 l-52 47 0 139 0 139 88 -44 c48 -25 109 -52 135 -60z
m1388 -487 c55 -26 110 -79 135 -133 22 -47 22 -57 18 -250 -3 -110 -6 -228
-8 -261 -2 -33 -7 -134 -11 -225 -9 -215 -11 -250 -16 -253 -2 -2 -27 -22 -55
-45 -34 -27 -53 -38 -56 -30 -6 16 0 168 17 478 10 183 18 400 16 460 -1 69
-14 97 -63 133 -35 26 -18 26 -1255 28 l-1042 1 -36 -22 c-19 -12 -45 -39 -55
-61 -23 -44 -23 -57 5 -589 14 -266 19 -401 16 -428 -1 -15 -111 65 -112 82 0
6 -2 19 -4 29 -2 9 -6 79 -10 155 -36 706 -36 735 3 811 31 61 100 119 155
131 18 3 547 6 1177 6 1035 -1 1148 -3 1181 -17z m-1575 -468 c6 -1 31 -15 57
-32 74 -49 87 -87 87 -255 0 -149 -5 -166 -60 -214 -44 -38 -91 -51 -197 -54
l-103 -3 -1 81 c-1 176 -1 403 0 442 l1 41 103 -3 c56 -1 107 -3 113 -3z m549
-36 c1 -66 2 -65 -105 -65 l-98 0 -1 -59 c0 -39 4 -60 12 -63 6 -2 47 -3 90
-2 l77 1 0 -49 c0 -26 -3 -48 -7 -49 -5 0 -42 -2 -83 -4 -41 -2 -78 -4 -82 -4
-4 -1 -7 -28 -7 -61 l1 -60 99 0 99 0 0 -55 0 -55 -153 0 -154 0 1 284 0 284
156 -1 155 -2 0 -40z m204 -84 c58 -221 64 -242 71 -234 7 8 47 169 71 291 7
34 15 63 19 63 3 1 23 3 45 4 48 3 77 -3 70 -15 -3 -5 -21 -67 -39 -137 -18
-70 -50 -192 -71 -270 l-39 -143 -53 0 c-49 0 -54 2 -64 28 -15 38 -66 203
-89 287 -11 39 -30 109 -44 157 -13 47 -23 88 -21 90 2 2 28 4 58 5 l53 1 33
-127z"/>
<path d="M3020 1796 l0 -176 30 0 c39 0 86 24 100 50 13 24 17 169 7 221 -10
48 -35 69 -91 75 l-46 6 0 -176z"/>
</g>
</svg>
